<svg xmlns="http://www.w3.org/2000/svg" viewBox="0 0 100 100">
  <rect width="100" height="100" rx="20" fill="#2563eb"/>
  <rect x="18" y="14" width="54" height="68" rx="6" fill="white" opacity="0.95"/>
  <rect x="18" y="14" width="8" height="68" rx="0" fill="#bfdbfe"/>
  <rect x="18" y="14" width="8" height="68" rx="6" fill="#bfdbfe"/>
  <rect x="30" y="24" width="34" height="5" rx="2.5" fill="#2563eb"/>
  <rect x="30" y="35" width="34" height="3" rx="1.5" fill="#93c5fd"/>
  <rect x="30" y="43" width="34" height="3" rx="1.5" fill="#93c5fd"/>
  <rect x="30" y="51" width="24" height="3" rx="1.5" fill="#93c5fd"/>
  <rect x="30" y="60" width="34" height="3" rx="1.5" fill="#bfdbfe"/>
  <rect x="30" y="68" width="20" height="3" rx="1.5" fill="#bfdbfe"/>
  <circle cx="74" cy="74" r="18" fill="#2563eb"/>
  <rect x="73" y="64" width="2" height="10" rx="1" fill="white"/>
  <rect x="68" y="73" width="12" height="2" rx="1" fill="white"/>
</svg>
